<svg width="14" height="14" viewBox="0 0 14 14" fill="none" xmlns="http://www.w3.org/2000/svg">
<path d="M6.76971 1.54515C6.85572 1.34153 7.14428 1.34153 7.23029 1.54515L8.74241 5.12458C8.76774 5.18454 8.81545 5.23226 8.87542 5.25759L12.4549 6.76971C12.6585 6.85572 12.6585 7.14428 12.4549 7.23029L8.87542 8.74241C8.81546 8.76774 8.76774 8.81545 8.74241 8.87542L7.23029 12.4549C7.14428 12.6585 6.85572 12.6585 6.76971 12.4549L5.25759 8.87542C5.23226 8.81546 5.18455 8.76774 5.12458 8.74241L1.54515 7.23029C1.34153 7.14428 1.34153 6.85572 1.54515 6.76971L5.12458 5.25759C5.18454 5.23226 5.23226 5.18455 5.25759 5.12458L6.76971 1.54515Z" fill="#12ACE7"/>
</svg>
